<svg width="400" height="378" viewBox="0 0 400 378" fill="none" xmlns="http://www.w3.org/2000/svg">
<rect width="400" height="378" rx="8" fill="#282828"/>
<rect x="0.5" y="0.5" width="399" height="377" rx="7.5" stroke="#504945"/>
<rect x="20" y="16" width="3" height="14" rx="1.5" fill="#fabd2f"/>
<text x="30" y="27" font-family="'JetBrains Mono','Fira Code','Courier New',monospace" font-size="12" font-weight="700" fill="#fabd2f" letter-spacing="2">LANGUAGES &amp; SOURCES</text>
<line x1="20" y1="36" x2="380" y2="36" stroke="#504945"/>
<circle cx="25" cy="54" r="4" fill="#dea584"/>
<text x="36" y="58" font-family="'JetBrains Mono','Fira Code','Courier New',monospace" font-size="11.5" font-weight="600" fill="#ebdbb2">Rust</text>
<text x="380" y="58" font-family="'JetBrains Mono','Fira Code','Courier New',monospace" font-size="10.5" fill="#a89984" text-anchor="end">92.8%</text>
<rect x="20" y="64" width="360" height="5" rx="2.5" fill="#3c3836"/>
<rect x="20" y="64" width="334.1" height="5" rx="2.5" fill="#dea584" opacity="0.85"/>
<text x="36" y="78" font-family="'JetBrains Mono','Fira Code','Courier New',monospace" font-size="9.5" fill="#7c6f64">↳ Hessesian/kotlin-lsp</text>
<circle cx="25" cy="114" r="4" fill="#3572A5"/>
<text x="36" y="118" font-family="'JetBrains Mono','Fira Code','Courier New',monospace" font-size="11.5" font-weight="600" fill="#ebdbb2">Python</text>
<text x="380" y="118" font-family="'JetBrains Mono','Fira Code','Courier New',monospace" font-size="10.5" fill="#a89984" text-anchor="end">3.0%</text>
<rect x="20" y="124" width="360" height="5" rx="2.5" fill="#3c3836"/>
<rect x="20" y="124" width="10.7" height="5" rx="2.5" fill="#3572A5" opacity="0.85"/>
<text x="36" y="138" font-family="'JetBrains Mono','Fira Code','Courier New',monospace" font-size="9.5" fill="#7c6f64">↳ Hessesian/kotlin-lsp</text>
<text x="36" y="152" font-family="'JetBrains Mono','Fira Code','Courier New',monospace" font-size="9.5" fill="#7c6f64">↳ ulite-Amr/ulite-Amr</text>
<circle cx="25" cy="188" r="4" fill="#7F52FF"/>
<text x="36" y="192" font-family="'JetBrains Mono','Fira Code','Courier New',monospace" font-size="11.5" font-weight="600" fill="#ebdbb2">Kotlin</text>
<text x="380" y="192" font-family="'JetBrains Mono','Fira Code','Courier New',monospace" font-size="10.5" fill="#a89984" text-anchor="end">2.3%</text>
<rect x="20" y="198" width="360" height="5" rx="2.5" fill="#3c3836"/>
<rect x="20" y="198" width="8.5" height="5" rx="2.5" fill="#7F52FF" opacity="0.85"/>
<text x="36" y="212" font-family="'JetBrains Mono','Fira Code','Courier New',monospace" font-size="9.5" fill="#7c6f64">↳ ulite-Amr/NoteScribe</text>
<circle cx="25" cy="248" r="4" fill="#f1e05a"/>
<text x="36" y="252" font-family="'JetBrains Mono','Fira Code','Courier New',monospace" font-size="11.5" font-weight="600" fill="#ebdbb2">JavaScript</text>
<text x="380" y="252" font-family="'JetBrains Mono','Fira Code','Courier New',monospace" font-size="10.5" fill="#a89984" text-anchor="end">1.4%</text>
<rect x="20" y="258" width="360" height="5" rx="2.5" fill="#3c3836"/>
<rect x="20" y="258" width="4.9" height="5" rx="2.5" fill="#f1e05a" opacity="0.85"/>
<text x="36" y="272" font-family="'JetBrains Mono','Fira Code','Courier New',monospace" font-size="9.5" fill="#7c6f64">↳ Hessesian/kotlin-lsp</text>
<circle cx="25" cy="308" r="4" fill="#89e051"/>
<text x="36" y="312" font-family="'JetBrains Mono','Fira Code','Courier New',monospace" font-size="11.5" font-weight="600" fill="#ebdbb2">Shell</text>
<text x="380" y="312" font-family="'JetBrains Mono','Fira Code','Courier New',monospace" font-size="10.5" fill="#a89984" text-anchor="end">0.5%</text>
<rect x="20" y="318" width="360" height="5" rx="2.5" fill="#3c3836"/>
<rect x="20" y="318" width="1.8" height="5" rx="2.5" fill="#89e051" opacity="0.85"/>
<text x="36" y="332" font-family="'JetBrains Mono','Fira Code','Courier New',monospace" font-size="9.5" fill="#7c6f64">↳ Hessesian/kotlin-lsp</text>
</svg>